<svg xmlns="http://www.w3.org/2000/svg" width="81.559" height="117.668" viewBox="0 0 81.559 117.668">
  <g id="Grupo_144" data-name="Grupo 144" transform="translate(-592.09 -155.332)">
    <g id="Grupo_11" data-name="Grupo 11">
      <path id="Trazado_187" data-name="Trazado 187" d="M599.052,198.1a63.226,63.226,0,0,1,8.681-13.61,67.005,67.005,0,0,1,5.626-5.92,37.038,37.038,0,0,1-16.945-18.6,1.91,1.91,0,0,0-.29.2c-.17.187-.338.378-.489.581a9.153,9.153,0,0,0-1.806,5.61q-.006,23.088,0,46.176v.742c.759-2.578,1.395-5.175,2.249-7.712A71.4,71.4,0,0,1,599.052,198.1Z" fill="#9aafc0" stroke="#231f20" stroke-miterlimit="10" stroke-width="0.055"/>
      <path id="Trazado_188" data-name="Trazado 188" d="M653.779,196.885a25.985,25.985,0,0,0,.089,4.1c.126,1.208.262,2.409.482,3.6a31.321,31.321,0,0,0,3.536,9.811,36.1,36.1,0,0,0,7.534,9.274,50.142,50.142,0,0,0,5.858,4.459c.156.1.328.18.54.294V196.578a3.349,3.349,0,0,0-.287-.189,39.639,39.639,0,0,1-8.571-6.121,41.852,41.852,0,0,1-4.071-4.3,43.823,43.823,0,0,1-5.333-8.111,42.823,42.823,0,0,1-3.765-10.714c-.258-1.234-.428-2.487-.627-3.733-.119-.744-.218-1.492-.325-2.23a1.258,1.258,0,0,0-.19,0,57,57,0,0,0-6.107,1.511,74.562,74.562,0,0,0-10.355,3.934,73.451,73.451,0,0,0-11.875,6.907,71.908,71.908,0,0,0-7.263,5.987,61.62,61.62,0,0,0-4.282,4.525,58.735,58.735,0,0,0-4.523,5.907,61.676,61.676,0,0,0-4.819,8.526c-.962,2.1-1.837,4.225-2.595,6.4a70.633,70.633,0,0,0-2.519,9.214,12.584,12.584,0,0,0-.352,2.394c-.03,5.858-.017,11.716-.015,17.573,0,.17.029.339.043.508a73.1,73.1,0,0,1,4.268-11.786,69.122,69.122,0,0,1,6.214-10.874,65.108,65.108,0,0,1,5.592-6.9,54.308,54.308,0,0,1,6.687-6.076,56.025,56.025,0,0,1,11.11-6.682,59.907,59.907,0,0,1,11.35-3.806,63.971,63.971,0,0,1,8.518-1.381c1.487-.136,2.97-.293,4.464-.3.228,0,.456,0,.684-.012.783-.033,1.565-.077,2.348-.1a2.242,2.242,0,0,1,.489.1,1.85,1.85,0,0,1-.048.277A33.171,33.171,0,0,0,653.779,196.885Z" fill="#57777e" stroke="#231f20" stroke-miterlimit="10" stroke-width="0.055"/>
      <path id="Trazado_189" data-name="Trazado 189" d="M657.374,247.411a20.426,20.426,0,0,0-5.463-5.838,31.19,31.19,0,0,0-6.034-3.491,36.721,36.721,0,0,0-6.236-2.137c-1.347-.323-2.712-.588-4.081-.8a27.385,27.385,0,0,0-3.608-.38,36.275,36.275,0,0,0-5.689.116c-.724.1-1.466.079-2.185.2a48.405,48.405,0,0,0-5.4,1.181,33.952,33.952,0,0,0-7.328,3.108,25.577,25.577,0,0,0-5.955,4.67,20.148,20.148,0,0,0-2.995,4.093,16.653,16.653,0,0,0-1.864,5.82,4.725,4.725,0,0,0,.024.847,6.661,6.661,0,0,0,2.477.293h55.079c.066-1.006.075-1.917.2-2.811a8.476,8.476,0,0,0,0-2.256A6.5,6.5,0,0,0,657.374,247.411Z" fill="#d44b43" stroke="#231f20" stroke-miterlimit="10" stroke-width="0.055"/>
      <path id="Trazado_190" data-name="Trazado 190" d="M613.687,178.113a70.709,70.709,0,0,1,16.579-11.234,72.532,72.532,0,0,1,19.039-6.441,13.772,13.772,0,0,1,.351,2.491c.148.791.2,1.6.345,2.394.149.818.35,1.627.543,2.437.187.786.371,1.575.6,2.35.234.8.505,1.593.784,2.381.27.763.533,1.532.866,2.268a11.632,11.632,0,0,0,1.1,2.274c.682-.448,1.355-.849,1.983-1.312,1.058-.779,2.107-1.574,3.123-2.408a21.793,21.793,0,0,0,2.122-1.952c.949-1.015,1.859-2.071,2.73-3.154a31.687,31.687,0,0,0,4.135-6.7,3.05,3.05,0,0,0,.078-2.584,9.2,9.2,0,0,0-5.328-1.647q-29.895.024-59.79,0a9.312,9.312,0,0,0-3.482.638,7.192,7.192,0,0,0-2.6,1.708A36.536,36.536,0,0,0,613.687,178.113Z" fill="#2f378b" stroke="#231f20" stroke-miterlimit="10" stroke-width="0.055"/>
      <path id="Trazado_191" data-name="Trazado 191" d="M670.152,160.886a5.158,5.158,0,0,0-1.262-1.366,1.823,1.823,0,0,0-.072.413,4.093,4.093,0,0,1-.528,2.261c-.218.429-.446.853-.669,1.279a34.782,34.782,0,0,1-6.019,8.17,37.9,37.9,0,0,1-6.925,5.546c-.211.133-.414.276-.667.446A43.633,43.633,0,0,0,664.7,191.149c2.077,1.8,6,4.452,7.167,4.731v-14.3q0-7.644,0-15.289A8.924,8.924,0,0,0,670.152,160.886Z" fill="#9aafc0" stroke="#231f20" stroke-miterlimit="10" stroke-width="0.055"/>
      <path id="Trazado_192" data-name="Trazado 192" d="M663.449,222.516a36.552,36.552,0,0,1-3.58-4.132,32.783,32.783,0,0,1-6.525-17.7,33.7,33.7,0,0,1,.227-6.9,37.223,37.223,0,0,1,1.307-6.07,4.169,4.169,0,0,0,.086-.477c-.3-.017-.552-.049-.8-.041-1.315.046-2.63.1-3.945.156a66.928,66.928,0,0,0-15.559,2.821,57.128,57.128,0,0,0-11.256,4.908,54.154,54.154,0,0,0-9.8,7.145,58.5,58.5,0,0,0-5.412,5.652,65.732,65.732,0,0,0-7.138,10.466,69.106,69.106,0,0,0-6.592,16.689,13.022,13.022,0,0,0-.559,3.206c.009,2.763,0,5.527.006,8.29a6.707,6.707,0,0,0,.07,1.213,9.006,9.006,0,0,0,4.311,6.239,4.53,4.53,0,0,0,1.562.662c0-.188.013-.333,0-.475-.129-1.206-.335-2.409-.381-3.618a45.06,45.06,0,0,1,.4-8.18A51.452,51.452,0,0,1,601.2,236a48.4,48.4,0,0,1,4.837-11.436,56.238,56.238,0,0,1,11.93-14.183,70.263,70.263,0,0,1,11.251-7.606,44.787,44.787,0,0,1,14.137-5.106,5.381,5.381,0,0,1,1.916-.174c-.524.636-1.05,1.22-1.512,1.851s-.881,1.3-1.28,1.976a18.452,18.452,0,0,0-2.555,7.565,15.842,15.842,0,0,0,.33,5.511,13.484,13.484,0,0,0,2.436,5.345c.366.452.691.941,1.078,1.375.91,1.018,1.809,2.05,2.782,3.005a39.24,39.24,0,0,1,3.378,3.385,44.8,44.8,0,0,1,8.041,14.965,27.285,27.285,0,0,1,1.232,8,19.611,19.611,0,0,1-.389,3.615,1.882,1.882,0,0,0,.021,1.171h.754c.964,0,1.928.02,2.891,0a19.35,19.35,0,0,0,4.14-.435,6.034,6.034,0,0,0,4.8-4.637,16.049,16.049,0,0,0,.446-3.91q0-8.178,0-16.354v-.793c-.618-.407-1.168-.768-1.716-1.132A44.4,44.4,0,0,1,663.449,222.516Z" fill="#a3b6a0" stroke="#231f20" stroke-miterlimit="10" stroke-width="0.055"/>
      <path id="Trazado_193" data-name="Trazado 193" d="M657.188,241.475a43.967,43.967,0,0,0-4.682-9.606,33.022,33.022,0,0,0-3.8-5.025c-.75-.787-1.587-1.492-2.381-2.238a29.744,29.744,0,0,1-3.106-3.437,19.525,19.525,0,0,1-1.966-2.791,16.611,16.611,0,0,1-1.582-10.844,20.12,20.12,0,0,1,3.87-8.658c.186-.248.359-.505.55-.775a.841.841,0,0,0-.214-.056c-.4.054-.8.1-1.2.175a41.885,41.885,0,0,0-9.161,2.933,60.9,60.9,0,0,0-7.952,4.29,62.993,62.993,0,0,0-9.09,6.854,55.9,55.9,0,0,0-5.341,5.719,51.36,51.36,0,0,0-7.048,11.321,47.64,47.64,0,0,0-4.023,15.113c-.164,1.685-.168,3.389-.179,5.085-.007,1.053.111,2.107.182,3.336.1-.263.143-.354.171-.449.044-.145.081-.291.117-.439a17.987,17.987,0,0,1,4.18-7.828,27.333,27.333,0,0,1,9.945-6.961,37.283,37.283,0,0,1,13.49-2.958c.682-.023,1.365-.12,2.045-.092,1.313.053,2.627.133,3.934.272,1.28.136,2.561.31,3.825.551a37.392,37.392,0,0,1,8.657,2.761,29.165,29.165,0,0,1,8.365,5.58,17.4,17.4,0,0,1,3.8,5.293,9.748,9.748,0,0,0-.006-1.077A30.928,30.928,0,0,0,657.188,241.475Zm-27.352-26.566a3.127,3.127,0,1,1-.065-6.254,3.127,3.127,0,0,1,.065,6.254Z" fill="#fbe824" stroke="#231f20" stroke-miterlimit="10" stroke-width="0.055"/>
      <path id="Trazado_194" data-name="Trazado 194" d="M673.523,164.664a10.2,10.2,0,0,0-2.916-6.046,10.687,10.687,0,0,0-7.995-3.281q-29.286-.012-58.571,0c-.758,0-1.517.048-2.274.1a8.974,8.974,0,0,0-3.706,1.031c-3.8,2.033-5.939,5.165-5.95,9.525-.037,13.388-.014,26.775-.014,40.163q0,18.94,0,37.881a27.287,27.287,0,0,0,.3,5.3,6.414,6.414,0,0,0,1.233,2.979,14.9,14.9,0,0,0,3.249,2.951,11.385,11.385,0,0,0,6.419,1.778q28.867,0,57.734-.006c1.19,0,2.379-.073,3.568-.107a11.387,11.387,0,0,0,2.911-.494,7.714,7.714,0,0,0,5.7-6.017,18.707,18.707,0,0,0,.433-4.22q0-39.9-.006-79.793A15.1,15.1,0,0,0,673.523,164.664Zm-74.059-6.752a9.312,9.312,0,0,1,3.482-.638q29.895.018,59.79,0a9.2,9.2,0,0,1,5.328,1.647,3.05,3.05,0,0,1-.078,2.584,31.687,31.687,0,0,1-4.135,6.7c-.871,1.083-1.781,2.139-2.73,3.154A21.793,21.793,0,0,1,659,173.313c-1.016.834-2.065,1.629-3.123,2.408-.628.463-1.3.864-1.983,1.312a11.632,11.632,0,0,1-1.1-2.274c-.333-.736-.6-1.505-.866-2.268-.279-.788-.55-1.579-.784-2.381-.226-.775-.41-1.564-.6-2.35-.193-.81-.394-1.619-.543-2.437-.144-.793-.2-1.6-.345-2.394a13.772,13.772,0,0,0-.351-2.491,72.532,72.532,0,0,0-19.039,6.441,70.709,70.709,0,0,0-16.579,11.234,36.536,36.536,0,0,1-16.819-18.493A7.192,7.192,0,0,1,599.464,157.912Zm55.758,28.734c-.783.024-1.565.068-2.348.1-.228.01-.456.011-.684.012-1.494.01-2.977.167-4.464.3a63.971,63.971,0,0,0-8.518,1.381,59.907,59.907,0,0,0-11.35,3.806,56.025,56.025,0,0,0-11.11,6.682,54.308,54.308,0,0,0-6.687,6.076,65.108,65.108,0,0,0-5.592,6.9,69.122,69.122,0,0,0-6.214,10.874,73.1,73.1,0,0,0-4.268,11.786c-.014-.169-.042-.338-.043-.508,0-5.857-.015-11.715.015-17.573a12.584,12.584,0,0,1,.352-2.394,70.633,70.633,0,0,1,2.519-9.214c.758-2.177,1.633-4.306,2.595-6.4a61.676,61.676,0,0,1,4.819-8.526,58.735,58.735,0,0,1,4.523-5.907,61.62,61.62,0,0,1,4.282-4.525,71.908,71.908,0,0,1,7.263-5.987,73.451,73.451,0,0,1,11.875-6.907,74.562,74.562,0,0,1,10.355-3.934,57,57,0,0,1,6.107-1.511,1.258,1.258,0,0,1,.19,0c.107.738.206,1.486.325,2.23.2,1.246.369,2.5.627,3.733a42.823,42.823,0,0,0,3.765,10.714,43.823,43.823,0,0,0,5.333,8.111,41.852,41.852,0,0,0,4.071,4.3,39.639,39.639,0,0,0,8.571,6.121,3.349,3.349,0,0,1,.287.189v31.845c-.212-.114-.384-.191-.54-.294a50.142,50.142,0,0,1-5.858-4.459,36.1,36.1,0,0,1-7.534-9.274,31.321,31.321,0,0,1-3.536-9.811c-.22-1.194-.356-2.4-.482-3.6a25.985,25.985,0,0,1-.089-4.1,33.171,33.171,0,0,1,1.884-9.867,1.85,1.85,0,0,0,.048-.277A2.242,2.242,0,0,0,655.222,186.646Zm-61.395,25.9q0-23.088,0-46.176a9.153,9.153,0,0,1,1.806-5.61c.151-.2.319-.394.489-.581a1.91,1.91,0,0,1,.29-.2,37.038,37.038,0,0,0,16.945,18.6,67.005,67.005,0,0,0-5.626,5.92,63.226,63.226,0,0,0-8.681,13.61,71.4,71.4,0,0,0-2.976,7.473c-.854,2.537-1.49,5.134-2.249,7.712Zm64.491,39.741c-.125.894-.134,1.805-.2,2.811H603.039a6.661,6.661,0,0,1-2.477-.293,4.725,4.725,0,0,1-.024-.847,16.653,16.653,0,0,1,1.864-5.82,20.148,20.148,0,0,1,2.995-4.093,25.577,25.577,0,0,1,5.955-4.67,33.952,33.952,0,0,1,7.328-3.108,48.405,48.405,0,0,1,5.4-1.181c.719-.124,1.461-.106,2.185-.2a36.275,36.275,0,0,1,5.689-.116,27.385,27.385,0,0,1,3.608.38c1.369.216,2.734.481,4.081.8a36.721,36.721,0,0,1,6.236,2.137,31.19,31.19,0,0,1,6.034,3.491,20.426,20.426,0,0,1,5.463,5.838,6.5,6.5,0,0,1,.945,2.615A8.476,8.476,0,0,1,658.318,252.282Zm.283-3.681a17.4,17.4,0,0,0-3.8-5.293,29.165,29.165,0,0,0-8.365-5.58,37.392,37.392,0,0,0-8.657-2.761c-1.264-.241-2.545-.415-3.825-.551-1.307-.139-2.621-.219-3.934-.272-.68-.028-1.363.069-2.045.092a37.283,37.283,0,0,0-13.49,2.958,27.333,27.333,0,0,0-9.945,6.961,17.987,17.987,0,0,0-4.18,7.828c-.036.148-.073.294-.117.439-.028.1-.07.186-.171.449-.071-1.229-.189-2.283-.182-3.336.011-1.7.015-3.4.179-5.085a47.64,47.64,0,0,1,4.023-15.113,51.36,51.36,0,0,1,7.048-11.321,55.9,55.9,0,0,1,5.341-5.719,62.993,62.993,0,0,1,9.09-6.854,60.9,60.9,0,0,1,7.952-4.29,41.885,41.885,0,0,1,9.161-2.933c.4-.076.8-.121,1.2-.175a.841.841,0,0,1,.214.056c-.191.27-.364.527-.55.775a20.12,20.12,0,0,0-3.87,8.658,16.611,16.611,0,0,0,1.582,10.844,19.525,19.525,0,0,0,1.966,2.791,29.744,29.744,0,0,0,3.106,3.437c.794.746,1.631,1.451,2.381,2.238a33.022,33.022,0,0,1,3.8,5.025,43.967,43.967,0,0,1,4.682,9.606,30.928,30.928,0,0,1,1.407,6.049A9.748,9.748,0,0,1,658.6,248.6Zm13.265-18.691q0,8.176,0,16.354a16.049,16.049,0,0,1-.446,3.91,6.034,6.034,0,0,1-4.8,4.637,19.35,19.35,0,0,1-4.14.435c-.963.024-1.927,0-2.891,0h-.754a1.882,1.882,0,0,1-.021-1.171,19.611,19.611,0,0,0,.389-3.615,27.285,27.285,0,0,0-1.232-8,44.8,44.8,0,0,0-8.041-14.965,39.24,39.24,0,0,0-3.378-3.385c-.973-.955-1.872-1.987-2.782-3.005-.387-.434-.712-.923-1.078-1.375a13.484,13.484,0,0,1-2.436-5.345,15.842,15.842,0,0,1-.33-5.511,18.452,18.452,0,0,1,2.555-7.565c.4-.676.818-1.343,1.28-1.976s.988-1.215,1.512-1.851a5.381,5.381,0,0,0-1.916.174,44.787,44.787,0,0,0-14.137,5.106,70.263,70.263,0,0,0-11.251,7.606,56.238,56.238,0,0,0-11.93,14.183A48.4,48.4,0,0,0,601.2,236a51.452,51.452,0,0,0-1.328,6.377,45.06,45.06,0,0,0-.4,8.18c.046,1.209.252,2.412.381,3.618.015.142,0,.287,0,.475a4.53,4.53,0,0,1-1.562-.662,9.006,9.006,0,0,1-4.311-6.239,6.707,6.707,0,0,1-.07-1.213c-.006-2.763,0-5.527-.006-8.29a13.022,13.022,0,0,1,.559-3.206,69.106,69.106,0,0,1,6.592-16.689,65.732,65.732,0,0,1,7.138-10.466,58.5,58.5,0,0,1,5.412-5.652,54.154,54.154,0,0,1,9.8-7.145,57.128,57.128,0,0,1,11.256-4.908,66.928,66.928,0,0,1,15.559-2.821c1.315-.055,2.63-.11,3.945-.156.246-.008.493.024.8.041a4.169,4.169,0,0,1-.086.477,37.223,37.223,0,0,0-1.307,6.07,33.7,33.7,0,0,0-.227,6.9,32.783,32.783,0,0,0,6.525,17.7,36.552,36.552,0,0,0,3.58,4.132,44.4,44.4,0,0,0,6.7,5.469c.548.364,1.1.725,1.716,1.132Zm0-34.867v.837c-1.164-.279-5.09-2.932-7.167-4.731a43.633,43.633,0,0,1-10.692-13.514c.253-.17.456-.313.667-.446a37.9,37.9,0,0,0,6.925-5.546,34.782,34.782,0,0,0,6.019-8.17c.223-.426.451-.85.669-1.279a4.093,4.093,0,0,0,.528-2.261,1.823,1.823,0,0,1,.072-.413,5.158,5.158,0,0,1,1.262,1.366,8.924,8.924,0,0,1,1.717,5.4q0,7.644,0,15.289Z"/>
      <path id="Trazado_195" data-name="Trazado 195" d="M629.771,208.655a3.127,3.127,0,1,0,.065,6.254,3.127,3.127,0,0,0-.065-6.254Z"/>
    </g>
    <g id="Grupo_12" data-name="Grupo 12">
      <path id="Trazado_196" data-name="Trazado 196" d="M598.272,261.82h.685l1.636,4.061h-.935l-.324-.861h-1.461l-.313.861h-.914Zm.355-1.125h1.084l-.919.826h-.7ZM598.59,263l-.456,1.262h.918Z" fill="#231f20"/>
      <path id="Trazado_197" data-name="Trazado 197" d="M601.267,261.82h1.455a2.4,2.4,0,0,1,.545.06,1.236,1.236,0,0,1,.451.2.972.972,0,0,1,.308.378,1.374,1.374,0,0,1,.114.594,1.259,1.259,0,0,1-.207.731.924.924,0,0,1-.6.382l.956,1.715h-.994l-.786-1.624H602.1v1.624h-.829Zm.829,1.68h.488c.074,0,.153,0,.237-.008a.688.688,0,0,0,.225-.052.4.4,0,0,0,.168-.135.435.435,0,0,0,.066-.258.458.458,0,0,0-.059-.247.389.389,0,0,0-.148-.14.606.606,0,0,0-.208-.066,1.477,1.477,0,0,0-.228-.017H602.1Z" fill="#231f20"/>
      <path id="Trazado_198" data-name="Trazado 198" d="M605.038,261.82h2.554v.825h-1.726v.758H607.5v.826h-1.631v.826h1.822v.826h-2.65Z" fill="#231f20"/>
      <path id="Trazado_199" data-name="Trazado 199" d="M609.887,261.82h.685l1.636,4.061h-.935l-.324-.861h-1.461l-.313.861h-.914Zm.318,1.181-.456,1.262h.918Z" fill="#231f20"/>
      <path id="Trazado_200" data-name="Trazado 200" d="M614.751,261.82h1.243a3.286,3.286,0,0,1,.858.109,1.9,1.9,0,0,1,.709.352,1.714,1.714,0,0,1,.481.634,2.283,2.283,0,0,1,.178.947,2.067,2.067,0,0,1-.173.869,1.847,1.847,0,0,1-.465.63,1.987,1.987,0,0,1-.674.388,2.444,2.444,0,0,1-.8.132h-1.355Zm.829,3.235h.43a2.154,2.154,0,0,0,.534-.063,1.1,1.1,0,0,0,.427-.21.983.983,0,0,0,.285-.384,1.46,1.46,0,0,0,.1-.582,1.21,1.21,0,0,0-.1-.519,1.021,1.021,0,0,0-.279-.365,1.2,1.2,0,0,0-.412-.215,1.69,1.69,0,0,0-.5-.072h-.489Z" fill="#231f20"/>
      <path id="Trazado_201" data-name="Trazado 201" d="M619.112,261.82h2.554v.825H619.94v.758h1.631v.826H619.94v.826h1.822v.826h-2.65Z" fill="#231f20"/>
      <path id="Trazado_202" data-name="Trazado 202" d="M627.052,262.875a.841.841,0,0,0-.3-.247.943.943,0,0,0-.412-.086.972.972,0,0,0-.433.1,1.043,1.043,0,0,0-.345.272,1.285,1.285,0,0,0-.228.416,1.692,1.692,0,0,0,0,1.047,1.324,1.324,0,0,0,.225.413,1.027,1.027,0,0,0,.338.272.914.914,0,0,0,.417.1.875.875,0,0,0,.451-.115.921.921,0,0,0,.324-.321l.69.556a1.468,1.468,0,0,1-.6.534,1.77,1.77,0,0,1-.754.172,2.173,2.173,0,0,1-.813-.149,1.85,1.85,0,0,1-.643-.428,1.956,1.956,0,0,1-.422-.674,2.657,2.657,0,0,1,0-1.766,1.956,1.956,0,0,1,.422-.674,1.85,1.85,0,0,1,.643-.428,2.173,2.173,0,0,1,.813-.149,1.862,1.862,0,0,1,.332.032,1.666,1.666,0,0,1,.339.1,1.467,1.467,0,0,1,.322.184,1.34,1.34,0,0,1,.276.281Z" fill="#231f20"/>
      <path id="Trazado_203" data-name="Trazado 203" d="M628.326,263.85a2.452,2.452,0,0,1,.152-.883,1.939,1.939,0,0,1,.422-.674,1.845,1.845,0,0,1,.642-.428,2.293,2.293,0,0,1,1.626,0,1.846,1.846,0,0,1,.642.428,1.925,1.925,0,0,1,.422.674,2.641,2.641,0,0,1,0,1.766,1.925,1.925,0,0,1-.422.674,1.846,1.846,0,0,1-.642.428,2.292,2.292,0,0,1-1.626,0,1.846,1.846,0,0,1-.642-.428,1.94,1.94,0,0,1-.422-.674A2.453,2.453,0,0,1,628.326,263.85Zm.861,0a1.6,1.6,0,0,0,.082.525,1.235,1.235,0,0,0,.236.413,1.08,1.08,0,0,0,.369.272,1.229,1.229,0,0,0,.962,0,1.081,1.081,0,0,0,.369-.272,1.218,1.218,0,0,0,.236-.413,1.692,1.692,0,0,0,0-1.047,1.213,1.213,0,0,0-.236-.416,1.093,1.093,0,0,0-.369-.272,1.229,1.229,0,0,0-.962,0,1.093,1.093,0,0,0-.369.272,1.229,1.229,0,0,0-.236.416A1.6,1.6,0,0,0,629.187,263.85Z" fill="#231f20"/>
      <path id="Trazado_204" data-name="Trazado 204" d="M633.244,261.82h1.126l1.6,2.822h.01V261.82h.829v4.061h-1.083l-1.642-2.891h-.01v2.891h-.829Z" fill="#231f20"/>
      <path id="Trazado_205" data-name="Trazado 205" d="M639.729,262.812a.589.589,0,0,0-.273-.2.92.92,0,0,0-.327-.066.815.815,0,0,0-.186.023.691.691,0,0,0-.181.072.405.405,0,0,0-.138.129.351.351,0,0,0-.053.2.333.333,0,0,0,.128.281,1.176,1.176,0,0,0,.321.166q.193.069.417.138a1.657,1.657,0,0,1,.417.2,1.025,1.025,0,0,1,.321.339,1.092,1.092,0,0,1,.128.567,1.391,1.391,0,0,1-.117.591,1.188,1.188,0,0,1-.316.419,1.318,1.318,0,0,1-.462.247,1.91,1.91,0,0,1-.555.08,1.863,1.863,0,0,1-.68-.121,1.673,1.673,0,0,1-.584-.39l.589-.7a.893.893,0,0,0,.723.384.851.851,0,0,0,.2-.026.645.645,0,0,0,.186-.077.43.43,0,0,0,.133-.132.357.357,0,0,0,.05-.19.351.351,0,0,0-.13-.289,1.176,1.176,0,0,0-.327-.181c-.131-.05-.272-.1-.425-.149a1.855,1.855,0,0,1-.424-.2,1.061,1.061,0,0,1-.327-.333,1,1,0,0,1-.13-.544,1.31,1.31,0,0,1,.119-.574,1.234,1.234,0,0,1,.319-.413,1.363,1.363,0,0,1,.459-.25,1.771,1.771,0,0,1,.537-.083,1.966,1.966,0,0,1,.616.1,1.4,1.4,0,0,1,.536.327Z" fill="#231f20"/>
      <path id="Trazado_206" data-name="Trazado 206" d="M641.248,261.82H643.8v.825h-1.727v.758h1.631v.826h-1.631v.826H643.9v.826h-2.65Z" fill="#231f20"/>
      <path id="Trazado_207" data-name="Trazado 207" d="M644.859,261.82h1.456a2.393,2.393,0,0,1,.544.06,1.24,1.24,0,0,1,.452.2.981.981,0,0,1,.308.378,1.374,1.374,0,0,1,.114.594,1.259,1.259,0,0,1-.207.731.923.923,0,0,1-.606.382l.956,1.715h-.993l-.786-1.624h-.409v1.624h-.829Zm.829,1.68h.489c.074,0,.153,0,.236-.008a.7.7,0,0,0,.226-.052.4.4,0,0,0,.167-.135.436.436,0,0,0,.067-.258.458.458,0,0,0-.059-.247.4.4,0,0,0-.149-.14.6.6,0,0,0-.207-.066,1.5,1.5,0,0,0-.228-.017h-.542Z" fill="#231f20"/>
      <path id="Trazado_208" data-name="Trazado 208" d="M648.227,261.82h.945l.929,2.661h.011l.945-2.661h.887l-1.551,4.061h-.664Z" fill="#231f20"/>
      <path id="Trazado_209" data-name="Trazado 209" d="M653.58,261.82h.685l1.636,4.061h-.935l-.324-.861h-1.46l-.314.861h-.913ZM653.9,263l-.457,1.262h.919Z" fill="#231f20"/>
      <path id="Trazado_210" data-name="Trazado 210" d="M659.035,262.875a.835.835,0,0,0-.3-.247.935.935,0,0,0-.411-.086.972.972,0,0,0-.433.1,1.044,1.044,0,0,0-.345.272,1.287,1.287,0,0,0-.229.416,1.713,1.713,0,0,0,0,1.047,1.347,1.347,0,0,0,.226.413,1.033,1.033,0,0,0,.337.272.92.92,0,0,0,.417.1.876.876,0,0,0,.452-.115.921.921,0,0,0,.324-.321l.69.556a1.468,1.468,0,0,1-.605.534,1.771,1.771,0,0,1-.755.172,2.172,2.172,0,0,1-.812-.149,1.849,1.849,0,0,1-.643-.428,1.955,1.955,0,0,1-.422-.674,2.657,2.657,0,0,1,0-1.766,1.955,1.955,0,0,1,.422-.674,1.849,1.849,0,0,1,.643-.428,2.172,2.172,0,0,1,.812-.149,1.845,1.845,0,0,1,.332.032,1.655,1.655,0,0,1,.34.1,1.466,1.466,0,0,1,.322.184,1.339,1.339,0,0,1,.276.281Z" fill="#231f20"/>
      <path id="Trazado_211" data-name="Trazado 211" d="M660.5,261.82h.829v4.061H660.5Z" fill="#231f20"/>
      <path id="Trazado_212" data-name="Trazado 212" d="M662.179,263.85a2.452,2.452,0,0,1,.151-.883,1.956,1.956,0,0,1,.422-.674,1.849,1.849,0,0,1,.643-.428,2.29,2.29,0,0,1,1.625,0,1.85,1.85,0,0,1,.643.428,1.956,1.956,0,0,1,.422.674,2.657,2.657,0,0,1,0,1.766,1.956,1.956,0,0,1-.422.674,1.85,1.85,0,0,1-.643.428,2.29,2.29,0,0,1-1.625,0,1.849,1.849,0,0,1-.643-.428,1.956,1.956,0,0,1-.422-.674A2.453,2.453,0,0,1,662.179,263.85Zm.86,0a1.6,1.6,0,0,0,.082.525,1.221,1.221,0,0,0,.237.413,1.062,1.062,0,0,0,.369.272,1.227,1.227,0,0,0,.961,0,1.071,1.071,0,0,0,.369-.272,1.22,1.22,0,0,0,.237-.413,1.713,1.713,0,0,0,0-1.047,1.215,1.215,0,0,0-.237-.416,1.083,1.083,0,0,0-.369-.272,1.227,1.227,0,0,0-.961,0,1.074,1.074,0,0,0-.369.272,1.216,1.216,0,0,0-.237.416A1.6,1.6,0,0,0,663.039,263.85Zm1.174-3.155H665.3l-.919.826h-.7Z" fill="#231f20"/>
      <path id="Trazado_213" data-name="Trazado 213" d="M667.1,261.82h1.126l1.6,2.822h.011V261.82h.828v4.061h-1.083l-1.641-2.891h-.011v2.891H667.1Z" fill="#231f20"/>
      <path id="Trazado_214" data-name="Trazado 214" d="M599.042,268.836h.828v3.235h1.535v.826h-2.363Z" fill="#231f20"/>
      <path id="Trazado_215" data-name="Trazado 215" d="M603.519,268.836h.685l1.636,4.061h-.935l-.324-.861h-1.46l-.314.861h-.913Zm.319,1.181-.457,1.262h.919Z" fill="#231f20"/>
      <path id="Trazado_216" data-name="Trazado 216" d="M609.865,268.836h.685l1.636,4.061h-.934l-.324-.861h-1.461l-.313.861h-.914Zm.319,1.181-.457,1.262h.919Z" fill="#231f20"/>
      <path id="Trazado_217" data-name="Trazado 217" d="M612.983,268.836h1.253l.866,2.65h.011l.871-2.65h1.248V272.9H616.4v-3.115h-.01l-.988,3.115h-.632l-.951-3.115h-.01V272.9h-.829Z" fill="#231f20"/>
      <path id="Trazado_218" data-name="Trazado 218" d="M618.406,268.836h.828V272.9h-.828Z" fill="#231f20"/>
      <path id="Trazado_219" data-name="Trazado 219" d="M622.267,269.828a.6.6,0,0,0-.274-.2.916.916,0,0,0-.327-.066.8.8,0,0,0-.185.023.727.727,0,0,0-.181.072.407.407,0,0,0-.138.129.351.351,0,0,0-.053.195.331.331,0,0,0,.127.281,1.168,1.168,0,0,0,.322.167c.129.045.268.091.417.137a1.664,1.664,0,0,1,.416.195,1.018,1.018,0,0,1,.322.339,1.094,1.094,0,0,1,.127.568,1.39,1.39,0,0,1-.117.59,1.179,1.179,0,0,1-.316.419,1.31,1.31,0,0,1-.462.247,1.905,1.905,0,0,1-.555.08,1.867,1.867,0,0,1-.68-.121,1.7,1.7,0,0,1-.584-.389l.59-.7a.884.884,0,0,0,.321.284.843.843,0,0,0,.606.074.628.628,0,0,0,.185-.077.43.43,0,0,0,.133-.132.347.347,0,0,0,.051-.189.356.356,0,0,0-.13-.29,1.179,1.179,0,0,0-.327-.181c-.131-.049-.273-.1-.425-.149a1.863,1.863,0,0,1-.425-.2,1.054,1.054,0,0,1-.326-.332,1.01,1.01,0,0,1-.131-.545,1.3,1.3,0,0,1,.12-.574,1.235,1.235,0,0,1,.319-.413,1.325,1.325,0,0,1,.459-.249,1.731,1.731,0,0,1,.536-.084,1.973,1.973,0,0,1,.617.1,1.394,1.394,0,0,1,.536.327Z" fill="#231f20"/>
      <path id="Trazado_220" data-name="Trazado 220" d="M624.6,269.627h-1.072v-.791h2.974v.791h-1.073v3.27H624.6Z" fill="#231f20"/>
      <path id="Trazado_221" data-name="Trazado 221" d="M628.093,268.836h.685l1.636,4.061h-.935l-.324-.861h-1.461l-.313.861h-.913Zm.318,1.181-.456,1.262h.918Z" fill="#231f20"/>
      <path id="Trazado_222" data-name="Trazado 222" d="M631.21,268.836h1.243a3.285,3.285,0,0,1,.858.109,1.9,1.9,0,0,1,.709.352,1.714,1.714,0,0,1,.481.634,2.282,2.282,0,0,1,.178.947,2.064,2.064,0,0,1-.173.869,1.851,1.851,0,0,1-.465.631,2.013,2.013,0,0,1-.674.387,2.444,2.444,0,0,1-.8.132H631.21Zm.829,3.235h.43a2.16,2.16,0,0,0,.534-.063,1.1,1.1,0,0,0,.427-.21.983.983,0,0,0,.285-.384,1.461,1.461,0,0,0,.1-.582,1.211,1.211,0,0,0-.1-.519,1.031,1.031,0,0,0-.279-.365,1.2,1.2,0,0,0-.412-.215,1.724,1.724,0,0,0-.5-.071h-.489Z" fill="#231f20"/>
      <path id="Trazado_223" data-name="Trazado 223" d="M638.709,271.813H637.4v-.689h1.306Z" fill="#231f20"/>
      <path id="Trazado_224" data-name="Trazado 224" d="M641.636,268.836h1.4a2.583,2.583,0,0,1,.552.057,1.2,1.2,0,0,1,.454.2.982.982,0,0,1,.308.379,1.382,1.382,0,0,1,.114.6,1.471,1.471,0,0,1-.106.6.969.969,0,0,1-.292.385,1.147,1.147,0,0,1-.441.2,2.351,2.351,0,0,1-.552.061h-.606V272.9h-.828Zm.828,1.72h.553a1.01,1.01,0,0,0,.215-.022.552.552,0,0,0,.186-.078.4.4,0,0,0,.132-.149.5.5,0,0,0,.051-.238.423.423,0,0,0-.067-.25.45.45,0,0,0-.169-.146.712.712,0,0,0-.231-.066,2.353,2.353,0,0,0-.245-.014h-.425Z" fill="#231f20"/>
      <path id="Trazado_225" data-name="Trazado 225" d="M646.246,268.836h.685l1.636,4.061h-.935l-.324-.861h-1.461l-.313.861h-.913Zm.318,1.181-.456,1.262h.918Z" fill="#231f20"/>
      <path id="Trazado_226" data-name="Trazado 226" d="M651.822,269.891a.824.824,0,0,0-.3-.247.937.937,0,0,0-.411-.086.972.972,0,0,0-.433.1,1.044,1.044,0,0,0-.345.272,1.3,1.3,0,0,0-.229.416,1.711,1.711,0,0,0,0,1.047,1.325,1.325,0,0,0,.226.413,1.01,1.01,0,0,0,.337.272.9.9,0,0,0,.417.1.872.872,0,0,0,.451-.115.924.924,0,0,0,.325-.321l.69.557a1.472,1.472,0,0,1-.6.533,1.756,1.756,0,0,1-.755.172,2.165,2.165,0,0,1-.812-.149,1.848,1.848,0,0,1-.643-.427,1.975,1.975,0,0,1-.422-.674,2.66,2.66,0,0,1,0-1.767,1.956,1.956,0,0,1,.422-.674,1.848,1.848,0,0,1,.643-.427,2.146,2.146,0,0,1,.812-.15,1.845,1.845,0,0,1,.332.032,1.67,1.67,0,0,1,.34.1,1.507,1.507,0,0,1,.322.184,1.34,1.34,0,0,1,.276.281Z" fill="#231f20"/>
      <path id="Trazado_227" data-name="Trazado 227" d="M653.83,267.711h1.083l-.919.826h-.7Zm-.42,1.125h.829V272.9h-.829Z" fill="#231f20"/>
      <path id="Trazado_228" data-name="Trazado 228" d="M655.444,268.836h2.523v.826h-1.694v.826h1.567v.826h-1.567V272.9h-.829Z" fill="#231f20"/>
      <path id="Trazado_229" data-name="Trazado 229" d="M658.971,268.836h.828V272.9h-.828Z" fill="#231f20"/>
      <path id="Trazado_230" data-name="Trazado 230" d="M663.432,269.891a.824.824,0,0,0-.3-.247.942.942,0,0,0-.412-.086.968.968,0,0,0-.432.1,1.057,1.057,0,0,0-.346.272,1.313,1.313,0,0,0-.228.416,1.713,1.713,0,0,0,0,1.047,1.325,1.325,0,0,0,.226.413,1.01,1.01,0,0,0,.337.272.9.9,0,0,0,.417.1.872.872,0,0,0,.451-.115.922.922,0,0,0,.324-.321l.691.557a1.475,1.475,0,0,1-.606.533,1.752,1.752,0,0,1-.754.172,2.173,2.173,0,0,1-.813-.149,1.844,1.844,0,0,1-.642-.427,1.945,1.945,0,0,1-.422-.674,2.644,2.644,0,0,1,0-1.767,1.927,1.927,0,0,1,.422-.674,1.844,1.844,0,0,1,.642-.427,2.155,2.155,0,0,1,.813-.15,1.854,1.854,0,0,1,.332.032,1.689,1.689,0,0,1,.34.1,1.525,1.525,0,0,1,.321.184,1.292,1.292,0,0,1,.276.281Z" fill="#231f20"/>
      <path id="Trazado_231" data-name="Trazado 231" d="M664.829,270.866a2.454,2.454,0,0,1,.151-.883,1.956,1.956,0,0,1,.422-.674,1.848,1.848,0,0,1,.643-.427,2.276,2.276,0,0,1,1.625,0,1.846,1.846,0,0,1,.643.427,1.956,1.956,0,0,1,.422.674,2.643,2.643,0,0,1,0,1.767,1.975,1.975,0,0,1-.422.674,1.846,1.846,0,0,1-.643.427,2.29,2.29,0,0,1-1.625,0,1.848,1.848,0,0,1-.643-.427,1.975,1.975,0,0,1-.422-.674A2.459,2.459,0,0,1,664.829,270.866Zm.86,0a1.6,1.6,0,0,0,.083.525,1.2,1.2,0,0,0,.236.413,1.058,1.058,0,0,0,.369.272,1.227,1.227,0,0,0,.961,0,1.049,1.049,0,0,0,.369-.272,1.219,1.219,0,0,0,.237-.413,1.711,1.711,0,0,0,0-1.047,1.224,1.224,0,0,0-.237-.416,1.074,1.074,0,0,0-.369-.272,1.227,1.227,0,0,0-.961,0,1.084,1.084,0,0,0-.369.272,1.207,1.207,0,0,0-.236.416A1.6,1.6,0,0,0,665.689,270.866Z" fill="#231f20"/>
    </g>
  </g>
</svg>
